{
    "asset" : {
        "generator" : "Khronos glTF Blender I/O v1.3.48",
        "version" : "2.0"
    },
    "scene" : 0,
    "scenes" : [
        {
            "name" : "Scene",
            "nodes" : [
                0,
                1
            ]
        }
    ],
    "nodes" : [
        {
            "mesh" : 0,
            "name" : "Curve",
            "rotation" : [
                0.7071068286895752,
                0,
                0,
                0.7071068286895752
            ],
            "scale" : [
                65.16918182373047,
                1,
                65.16918182373047
            ]
        },
        {
            "mesh" : 1,
            "name" : "Curve.001",
            "rotation" : [
                0.7071068286895752,
                0,
                0,
                0.7071068286895752
            ],
            "scale" : [
                65.16918182373047,
                1,
                65.16918182373047
            ]
        }
    ],
    "materials" : [
        {
            "doubleSided" : true,
            "name" : "SVGMat",
            "pbrMetallicRoughness" : {}
        },
        {
            "doubleSided" : true,
            "name" : "SVGMat.001",
            "pbrMetallicRoughness" : {}
        }
    ],
    "meshes" : [
        {
            "name" : "Curve",
            "primitives" : [
                {
                    "attributes" : {
                        "POSITION" : 0,
                        "NORMAL" : 1,
                        "TEXCOORD_0" : 2
                    },
                    "indices" : 3,
                    "material" : 0
                }
            ]
        },
        {
            "name" : "Curve.001",
            "primitives" : [
                {
                    "attributes" : {
                        "POSITION" : 4,
                        "NORMAL" : 5,
                        "TEXCOORD_0" : 6
                    },
                    "indices" : 7,
                    "material" : 1
                }
            ]
        }
    ],
    "accessors" : [
        {
            "bufferView" : 0,
            "componentType" : 5126,
            "count" : 1596,
            "max" : [
                0.022682664915919304,
                0.09999998658895493,
                -0.00017494054918643087
            ],
            "min" : [
                0.00027940390282310545,
                -0.09999998658895493,
                -0.022573471069335938
            ],
            "type" : "VEC3"
        },
        {
            "bufferView" : 1,
            "componentType" : 5126,
            "count" : 1596,
            "type" : "VEC3"
        },
        {
            "bufferView" : 2,
            "componentType" : 5126,
            "count" : 1596,
            "type" : "VEC2"
        },
        {
            "bufferView" : 3,
            "componentType" : 5123,
            "count" : 2880,
            "type" : "SCALAR"
        },
        {
            "bufferView" : 4,
            "componentType" : 5126,
            "count" : 469,
            "max" : [
                0.029729895293712616,
                0.11999998241662979,
                -0.004023721441626549
            ],
            "min" : [
                0.006680336780846119,
                -0.11999998241662979,
                -0.02115897461771965
            ],
            "type" : "VEC3"
        },
        {
            "bufferView" : 5,
            "componentType" : 5126,
            "count" : 469,
            "type" : "VEC3"
        },
        {
            "bufferView" : 6,
            "componentType" : 5126,
            "count" : 469,
            "type" : "VEC2"
        },
        {
            "bufferView" : 7,
            "componentType" : 5123,
            "count" : 852,
            "type" : "SCALAR"
        }
    ],
    "bufferViews" : [
        {
            "buffer" : 0,
            "byteLength" : 19152,
            "byteOffset" : 0
        },
        {
            "buffer" : 0,
            "byteLength" : 19152,
            "byteOffset" : 19152
        },
        {
            "buffer" : 0,
            "byteLength" : 12768,
            "byteOffset" : 38304
        },
        {
            "buffer" : 0,
            "byteLength" : 5760,
            "byteOffset" : 51072
        },
        {
            "buffer" : 0,
            "byteLength" : 5628,
            "byteOffset" : 56832
        },
        {
            "buffer" : 0,
            "byteLength" : 5628,
            "byteOffset" : 62460
        },
        {
            "buffer" : 0,
            "byteLength" : 3752,
            "byteOffset" : 68088
        },
        {
            "buffer" : 0,
            "byteLength" : 1704,
            "byteOffset" : 71840
        }
    ],
    "buffers" : [
        {
            "byteLength" : 73544,
            "uri" : "data:application/octet-stream;base64,"
        }
    ]
}
