<svg width="106" height="80" viewBox="0 0 106 80" fill="none" xmlns="http://www.w3.org/2000/svg">
<path d="M40.69 8.58C47.8848 8.58184 54.8563 11.0782 60.4169 15.6437C65.9775 20.2092 69.7832 26.5614 71.1856 33.6182C72.5879 40.6749 71.5002 47.9996 68.1077 54.3443C64.7152 60.6891 59.2279 65.6613 52.5805 68.4139C45.9331 71.1665 38.537 71.5292 31.6522 69.4402C24.7674 67.3513 18.8199 62.9398 14.8228 56.9575C10.8258 50.9752 9.02663 43.792 9.73178 36.6319C10.4369 29.4718 13.6028 22.7777 18.69 17.69C21.5733 14.7933 25.0021 12.4967 28.7782 10.9331C32.5543 9.3694 36.6029 8.56964 40.69 8.58ZM40.69 1.26035e-06C32.8396 -0.00197666 25.165 2.32412 18.6367 6.68411C12.1084 11.0441 7.01968 17.2421 4.0141 24.4944C1.00852 31.7466 0.221105 39.7272 1.75142 47.427C3.28174 55.1268 7.06106 62.1998 12.6114 67.7515C18.1618 73.3033 25.2338 77.0844 32.9332 78.6166C40.6326 80.1489 48.6134 79.3635 55.8664 76.3597C63.1194 73.356 69.3187 68.2688 73.6803 61.7416C78.042 55.2144 80.37 47.5404 80.37 39.69C80.37 29.1653 76.1898 19.0715 68.7486 11.6285C61.3075 4.18544 51.2147 0.00265299 40.69 1.26035e-06Z" fill="#008C9A"/>
<path fill-rule="evenodd" clip-rule="evenodd" d="M23.67 65.74C23.67 65.74 37 59.9 43.05 56C43.05 56 45.78 50.71 50.27 40.45C55.83 27.78 66.05 23 105.34 5.09999C105.34 5.09999 81.75 2.80999 39.73 20.65C39.4601 20.7621 39.2399 20.9681 39.11 21.23C37.41 24.65 25.5 49 23.67 65.74Z" fill="#008C9A"/>
</svg>
